<?xml version="1.0" encoding="UTF-8"?> <svg xmlns="http://www.w3.org/2000/svg" width="300" height="300" viewBox="0 0 300 300" fill="none"> <g clip-path="url(#clip0_3157_244)"> <circle cx="150" cy="150" r="150" fill="#D9D9D9"></circle> <g clip-path="url(#clip1_3157_244)"> <path d="M145.993 261.082C144.946 260.689 143.513 260.435 141.607 260.295C140.611 260.223 139.221 260.152 137.478 260.083L134.396 259.965L134.218 262.374L135.461 262.465C136.453 262.539 136.706 262.661 136.71 262.661C136.749 262.73 136.77 262.807 136.772 262.885C136.794 263.082 136.814 263.672 136.686 265.414L136.057 273.996C135.923 275.829 135.818 276.419 135.767 276.608C135.716 276.797 135.629 276.865 135.6 276.883C135.57 276.901 135.365 276.999 134.543 276.938L133.159 276.836L132.979 279.276L142.811 280.002L142.99 277.564L141.49 277.451C140.654 277.39 140.447 277.241 140.447 277.241C140.36 277.146 140.314 277.02 140.319 276.891C140.302 276.673 140.294 276.047 140.421 274.317L140.617 271.564L141.615 271.636C143.772 271.796 145.287 271.691 146.246 271.318C147.21 270.953 148.039 270.3 148.621 269.448C149.204 268.574 149.543 267.559 149.601 266.51C149.697 265.186 149.391 264.036 148.689 263.088C148.005 262.168 147.065 261.471 145.987 261.084M145.021 266.329C144.999 266.993 144.787 267.637 144.409 268.183C144.144 268.579 143.748 268.867 143.292 268.997C142.582 269.138 141.855 269.171 141.135 269.096L140.805 269.072L141.268 262.767C141.398 262.767 141.537 262.783 141.686 262.795C143.021 262.893 143.946 263.218 144.431 263.76C144.915 264.303 145.109 265.153 145.019 266.329" fill="#1E1A1A"></path> <path d="M272.73 145.267L272.666 147.609L273.368 147.806C274.522 148.121 275.422 148.524 276.042 149.006C276.618 149.454 276.991 149.902 277.148 150.335C277.344 150.962 277.423 151.62 277.381 152.276L277.344 153.584C277.316 154.537 277.169 154.891 277.116 154.992C276.956 155.041 276.281 155.188 274.015 155.123L270.799 155.029L270.829 154.028C270.854 153.141 270.936 152.813 270.972 152.712C270.983 152.677 271.005 152.616 271.148 152.551C271.182 152.537 271.509 152.406 272.699 152.445L273.623 152.471L273.693 150.014L265.868 149.774L265.796 152.233L266.717 152.26C267.817 152.292 268.105 152.394 268.135 152.408C268.164 152.421 268.203 152.435 268.262 152.581C268.293 152.659 268.393 152.996 268.364 154.008L268.337 154.946L262.847 154.785L262.89 153.279C262.923 152.138 263.004 151.312 263.133 150.838C263.244 150.47 263.479 150.152 263.798 149.938C264.029 149.769 264.629 149.442 266.056 149.163L266.78 149.021L266.848 146.661L260.629 147.071L260.216 161.369L262.655 161.442L262.68 160.516C262.706 159.591 262.821 159.355 262.819 159.355C262.898 159.304 262.99 159.274 263.084 159.271C263.296 159.241 263.898 159.198 265.56 159.247L274.136 159.497C276.026 159.552 276.55 159.627 276.685 159.658C276.818 159.681 276.941 159.745 277.036 159.841C277.036 159.841 277.158 160.075 277.132 160.935L277.095 162.223L279.534 162.295L280.006 145.973L272.73 145.267Z" fill="#1E1A1A"></path> <path d="M44.7791 92.2874C46.5927 93.4673 48.4514 94.0671 50.3042 94.0671C50.927 94.0672 51.5481 94.0013 52.157 93.8705C54.6275 93.3376 56.6469 91.8804 58.1645 89.5323C59.3742 87.6641 59.8467 85.672 59.5683 83.6072C59.7547 83.6495 59.938 83.704 60.1173 83.7704L60.8114 84.03L62.023 82.1618L55.2921 77.7804L54.0334 79.7292L54.6843 80.2523C55.4536 80.9006 56.0924 81.6902 56.5666 82.5787C57.0528 83.3755 57.254 84.3146 57.1371 85.2414C57.0298 86.1084 56.7347 86.9413 56.2725 87.6818C55.4588 88.9404 54.3118 89.6484 52.7433 89.845C51.1493 90.0417 49.3161 89.4832 47.2966 88.1676C45.1399 86.7615 43.738 85.2669 43.1459 83.7271C42.8664 83.065 42.7585 82.3428 42.8322 81.6276C42.9059 80.9124 43.1588 80.2275 43.5674 79.6368C44.2461 78.5618 45.2728 77.7536 46.4751 77.3477C47.675 76.9269 49.2788 77.1511 51.2512 78.0183L51.9688 78.3349L53.2138 76.4097L45.9594 71.9241L44.7046 73.8631L45.3575 74.3881C45.5563 74.5464 45.743 74.7193 45.9163 74.9053C45.3227 75.122 44.7504 75.3932 44.2066 75.7155C43.0147 76.4245 42.0069 77.4064 41.2656 78.5808C40.3348 79.9968 39.7844 81.63 39.6677 83.322C39.554 85.0369 39.9932 86.73 40.9735 88.3563C41.9282 89.9372 43.2297 91.279 44.7791 92.2796" fill="#1E1A1A"></path> <path d="M62.8446 56.7743C63.6289 56.1234 63.8818 56.0408 63.8759 56.0408C63.87 56.0408 63.9387 56.0408 64.0975 56.1647C64.2563 56.2886 64.6857 56.6937 65.8072 58.0388L71.3715 64.6699C72.5479 66.0819 72.889 66.5834 72.9831 66.7545C73.0949 66.9609 73.0674 67.0534 73.0557 67.0907C73.0557 67.0907 72.9675 67.3424 72.3322 67.8773L71.2284 68.8095L72.7969 70.6855L85.6509 59.8441L81.261 54.3378L79.5317 55.7911L79.8239 56.4302C80.3728 57.6455 80.6748 58.6071 80.7179 59.2856C80.7552 59.8952 80.6826 60.3652 80.4983 60.6877C80.3454 60.9532 79.967 61.435 79.0435 62.2157L78.0181 63.081C77.0848 63.8676 76.7711 63.9502 76.7652 63.9522C76.6398 63.9738 76.6084 63.9522 76.5692 63.9246C76.477 63.8519 76.1457 63.5471 75.0928 62.2904L69.154 55.211C67.9403 53.7656 67.6521 53.2995 67.5855 53.1658C67.5507 53.1049 67.5268 53.0383 67.5149 52.9691C67.5266 52.9475 67.6639 52.7017 68.4187 52.0645L69.7226 50.9652L68.1541 49.0892L60.2664 55.7419L61.8349 57.618L62.8446 56.7743Z" fill="#1E1A1A"></path> <path d="M99.1565 48.6734C99.2134 48.8917 99.1565 48.9703 99.1448 49.0057C99.1448 49.0057 98.9977 49.226 98.2468 49.5839L96.9469 50.2092L97.9978 52.4196L106.934 48.1385L105.878 45.9261L104.58 46.5476C103.817 46.9114 103.556 46.8878 103.558 46.8897C103.433 46.8468 103.328 46.7575 103.266 46.64C103.145 46.4591 102.827 45.9203 102.074 44.3372L98.3488 36.5183C97.537 34.8133 97.3684 34.2883 97.3429 34.1408C97.3248 34.0769 97.3181 34.0103 97.3233 33.9441C97.3371 33.9264 97.5194 33.7258 98.4233 33.2952L99.5996 32.7327L98.5448 30.5184L89.6042 34.7996L90.6552 37.0119L91.8315 36.4514C92.7589 36.007 93.0315 35.9972 93.0275 35.9972C93.0236 35.9972 93.0883 36.0168 93.1942 36.1624C93.3001 36.3079 93.6255 36.8329 94.3804 38.4199L98.1056 46.2408C98.9017 47.9104 99.1036 48.4807 99.1526 48.6734" fill="#1E1A1A"></path> <path d="M118.549 26.0015C118.988 25.91 119.435 25.856 119.884 25.8403C119.903 25.8416 119.923 25.8416 119.943 25.8403C120.023 25.9219 120.085 26.0189 120.127 26.1254C120.223 26.3221 120.425 26.9002 120.715 28.5383L122.362 37.7633C122.613 39.1733 122.591 39.4958 122.593 39.5037C122.517 39.6354 122.412 39.7488 122.288 39.836C122.009 40.0661 121.503 40.2785 120.835 40.4496L119.996 40.662L120.415 43.0218L128.705 41.5331L128.273 39.1202L127.366 39.2834C126.385 39.4604 125.893 39.368 125.695 39.2972C125.287 39.1517 125.213 39.0219 125.211 39.0219C125.183 38.9668 125.032 38.6286 124.801 37.3346L123.133 27.972L136.626 40.5125L138.537 40.1684L135.812 24.8609C135.653 23.978 135.687 23.6496 135.702 23.5709C135.768 23.4142 135.88 23.2817 136.024 23.1914C136.426 22.9191 136.875 22.7262 137.349 22.623L138.171 22.4067L137.755 20.0626L129.644 21.5178L130.073 23.9327L130.981 23.7715C131.467 23.669 131.967 23.6537 132.457 23.7263C132.648 23.7371 132.832 23.8056 132.983 23.9229C133.001 23.9465 133.179 24.1923 133.332 25.1028L134.704 32.7939L123.685 22.5896L117.215 23.7518L117.643 26.1647L118.549 26.0015Z" fill="#1E1A1A"></path> <path d="M165.502 37.919L164.067 37.7852C163.238 37.7105 163.016 37.5571 163.014 37.5571C162.928 37.4554 162.884 37.3246 162.891 37.1913C162.879 36.975 162.891 36.3497 163.044 34.6034L163.844 25.9723C164.016 24.0923 164.146 23.5574 164.191 23.4159C164.211 23.3504 164.241 23.2881 164.279 23.231C164.304 23.231 164.575 23.1484 165.557 23.231L166.851 23.351L167.077 20.9105L157.217 20L156.991 22.4424L158.285 22.5604C159.287 22.6548 159.54 22.7846 159.544 22.7846C159.584 22.8547 159.604 22.9341 159.603 23.0147C159.622 23.2113 159.63 23.8131 159.467 25.5712L158.669 34.2022C158.499 36.0429 158.381 36.6368 158.326 36.8275C158.271 37.0183 158.179 37.0891 158.144 37.1068C158.144 37.1068 157.903 37.2189 157.079 37.1422L155.642 37.0085L155.417 39.4489L165.279 40.3693L165.502 37.919Z" fill="#1E1A1A"></path> <path d="M204.13 54.2493L204.624 53.329L202.467 52.4854L202.05 53.0753C201.854 53.3447 201.413 53.976 199.905 53.386C198.958 53.0144 197.736 52.1923 196.272 50.9377C195.127 49.9456 193.898 49.0553 192.6 48.277L193.692 48.1275C195.937 48.275 197.952 47.7559 199.664 46.5701C201.382 45.3653 202.695 43.6652 203.428 41.695C204.108 39.9979 204.336 38.1524 204.089 36.3402C203.831 34.5116 202.997 32.8137 201.709 31.4947C200.463 30.1642 198.939 29.1266 197.246 28.4564C194.501 27.3787 191.831 27.3178 189.331 28.2774C186.798 29.2489 184.965 31.1505 183.882 33.9233C182.773 36.7728 182.798 39.463 183.961 41.9212C184.862 43.8085 186.324 45.3698 188.145 46.3911H188.035C186.845 46.4894 186.043 46.576 185.582 46.6605C184.818 46.8001 184.328 47.1364 184.126 47.6438C184.056 47.8084 184.021 47.9853 184.021 48.1639C184.021 48.3426 184.056 48.5194 184.126 48.6841C184.204 48.8539 184.315 49.0062 184.453 49.1319C184.591 49.2576 184.753 49.3541 184.929 49.4156C185.355 49.5828 185.88 49.5257 186.806 49.219C187.565 48.9594 188.212 48.9417 188.782 49.1659C189.902 49.6044 191.149 50.7607 192.492 52.6053C193.143 53.5348 193.876 54.4036 194.682 55.2011C195.377 55.8352 196.185 56.3323 197.064 56.6662C197.806 56.978 198.599 57.1481 199.403 57.1677C200.005 57.1682 200.602 57.063 201.168 56.8569C202.444 56.394 203.498 55.4638 204.118 54.2533M191.023 45.0106C189.178 44.2869 188.061 43.2211 187.606 41.7521C187.137 40.2241 187.38 38.2123 188.327 35.7817C189.261 33.3865 190.433 31.7641 191.813 30.9578C192.508 30.5438 193.301 30.3276 194.109 30.3325C194.881 30.3465 195.643 30.5052 196.356 30.8005C198.101 31.4848 199.164 32.5468 199.609 34.0512C200.074 35.6244 199.844 37.6027 198.929 39.9507C197.987 42.3656 196.803 43.9939 195.409 44.7884C194.062 45.5573 192.633 45.6281 191.043 45.0047" fill="#1E1A1A"></path> <path d="M225.587 67.1971C225.988 67.1982 226.387 67.1567 226.779 67.0732C227.724 66.8928 228.607 66.47 229.342 65.8461C230.189 65.0445 230.975 64.1808 231.694 63.2621L235.42 58.7194C236.249 57.7047 236.608 57.3743 236.743 57.2681C236.922 57.155 237.133 57.1058 237.343 57.1285C237.633 57.1285 238.051 57.3252 238.519 57.6614L239.221 58.1649L240.735 56.3183L234.759 51.3922L233.245 53.2427L233.877 53.8326C234.498 54.4226 234.675 54.7569 234.726 54.9083C234.76 54.9933 234.776 55.0842 234.775 55.1758C234.773 55.2673 234.753 55.3576 234.716 55.4412C234.641 55.6104 234.406 56.0312 233.651 56.9535L229.84 61.6063C229.246 62.3619 228.602 63.0773 227.914 63.7478C227.509 64.1003 227.025 64.3516 226.505 64.4813C225.843 64.6277 225.156 64.5993 224.509 64.3988C223.664 64.1639 222.88 63.7486 222.211 63.1815C221.311 62.4401 220.752 61.6633 220.552 60.8728C220.352 60.0822 220.389 59.4647 220.66 58.9299C221.003 58.2573 221.77 57.1895 222.944 55.7559L226.459 51.4649C227.657 50.0018 228.059 49.6341 228.177 49.5436C228.231 49.5028 228.29 49.4679 228.351 49.4394C228.377 49.4394 228.642 49.5377 229.404 50.167L230.385 50.9772L231.936 49.0835L224.289 42.7906L222.736 44.6824L223.76 45.53C224.532 46.1632 224.667 46.411 224.671 46.411C224.664 46.4968 224.635 46.5794 224.587 46.6509C224.495 46.8259 224.175 47.3215 223.062 48.6803L219.597 52.9221L218.436 54.3184C217.438 55.5356 216.829 56.7096 216.623 57.8109C216.409 58.9476 216.595 60.1707 217.176 61.449C217.733 62.678 218.684 63.8521 219.999 64.9356C221.004 65.793 222.166 66.4457 223.42 66.8569C224.118 67.0793 224.845 67.1959 225.577 67.203" fill="#1E1A1A"></path> <path d="M239.867 81.159L237.818 82.4982L246.764 96.2639L253.179 92.6711L251.901 90.7045L251.215 90.9484C250.066 91.3594 249.095 91.5383 248.311 91.497C247.576 91.4577 247.011 91.3004 246.631 91.0329C246.109 90.6258 245.666 90.1266 245.323 89.56L244.607 88.4548C244.08 87.6446 244 87.2651 243.988 87.1549C244.09 87.0212 244.562 86.5099 246.482 85.2553L249.203 83.4756L249.756 84.3251C250.258 85.0999 250.37 85.4185 250.391 85.505C250.391 85.5424 250.419 85.6053 250.336 85.7469C250.319 85.7784 250.14 86.0616 249.111 86.7302L248.338 87.2375L249.682 89.3004L256.279 84.9859L254.936 82.923L254.152 83.4284C253.226 84.0341 252.924 84.1147 252.897 84.1226C252.87 84.1304 252.819 84.1422 252.685 84.0518C252.613 84.0046 252.334 83.7804 251.779 82.9269L251.262 82.1305L255.911 79.0902L256.74 80.3685C257.369 81.334 257.771 82.0617 257.936 82.5317C258.055 82.902 258.042 83.3022 257.901 83.6644C257.808 83.9377 257.499 84.5532 256.475 85.6093L255.962 86.1402L257.252 88.1264L262.153 84.213L254.311 72.1523L252.264 73.4896L252.768 74.2664C253.273 75.0431 253.317 75.3086 253.319 75.3086C253.321 75.3086 253.307 75.3853 253.144 75.5387C252.981 75.6921 252.519 76.0618 251.107 76.9861L243.868 81.7195C242.268 82.7657 241.794 83.0017 241.664 83.0548C241.542 83.1118 241.405 83.1296 241.272 83.1059C241.272 83.1059 241.029 82.98 240.557 82.2524L239.867 81.159Z" fill="#1E1A1A"></path> <path d="M27.0583 159.808C27.991 159.067 28.8812 158.274 29.7248 157.433C30.0325 158.29 30.5284 159.067 31.1757 159.706C31.6543 160.182 32.2272 160.553 32.8574 160.793C33.4876 161.034 34.161 161.139 34.8343 161.102C36.0014 161.069 37.1107 160.585 37.9302 159.751C38.7494 158.911 39.3219 157.86 39.5849 156.715C39.8692 155.57 39.9771 154.101 39.8987 152.351C39.8536 151.35 39.7555 149.991 39.6065 148.328L39.285 144.951L36.893 145.055L36.9479 146.276C36.991 147.279 36.8969 147.545 36.8989 147.545C36.8362 147.592 36.7626 147.621 36.6851 147.631C36.4891 147.677 35.9009 147.765 34.1696 147.842L25.5937 148.217C23.7664 148.298 23.1684 148.261 22.9723 148.231C22.7763 148.202 22.7018 148.125 22.6802 148.095C22.6586 148.066 22.539 147.875 22.5038 147.051L22.4371 145.557L20 145.661L20.4451 155.899L22.8822 155.792L22.8057 154.023C22.7684 153.191 22.89 152.955 22.888 152.955C22.9753 152.86 23.0949 152.801 23.2233 152.79C23.437 152.748 24.0527 152.666 25.7839 152.593L28.7249 152.463C28.7271 152.562 28.7111 152.66 28.6778 152.752C28.6622 152.776 28.4975 153.016 27.5662 153.848C26.8878 154.453 26.1662 155.051 25.4212 155.617C22.9174 157.543 21.3979 158.941 20.7843 159.906L20.6274 160.152L20.8843 166.087L23.29 165.981V165.086C23.2599 164.306 23.4715 163.535 23.8958 162.88C24.3566 162.182 25.4232 161.149 27.0642 159.808M37.3792 152.093C37.3792 152.152 37.3792 152.211 37.3792 152.266C37.4812 154.589 37.0283 155.362 36.7479 155.61C36.2028 156.105 35.4186 156.38 34.4167 156.424C33.9241 156.463 33.4286 156.412 32.954 156.274C32.6407 156.182 32.3524 156.019 32.1109 155.798C31.8818 155.557 31.7102 155.266 31.609 154.949C31.4416 154.439 31.3369 153.911 31.2973 153.376C31.2639 153.027 31.2345 152.683 31.2051 152.347L37.3792 152.093Z" fill="#1E1A1A"></path> <path d="M33.8826 201.707C34.6557 201.334 35.4491 201.006 36.2589 200.723L44.3152 197.756C46.0798 197.107 46.6013 196.995 46.7484 196.969C46.7863 196.967 46.8242 196.967 46.8621 196.969C46.9229 196.969 46.9484 196.969 46.9445 196.969C46.966 196.995 47.1405 197.219 47.4817 198.12L47.8895 199.231L50.1776 198.385L46.7817 189.16L44.4936 190.006L44.972 191.312C45.3132 192.242 45.3073 192.519 45.3093 192.519C45.3112 192.519 45.2779 192.58 45.1289 192.67C44.9799 192.761 44.4231 193.038 42.7957 193.64L40.4057 194.523L37.8863 187.664L40.2763 186.781C42.0409 186.132 42.5644 186.02 42.7095 185.994C42.748 185.992 42.7866 185.992 42.8251 185.994C42.884 185.994 42.9055 185.994 42.9055 185.994C42.9055 185.994 43.1016 186.228 43.4369 187.131L43.8682 188.311L46.1582 187.467L42.7996 178.321L40.5116 179.168L40.9409 180.348C41.2821 181.278 41.2762 181.558 41.2782 181.558C41.2801 181.558 41.2488 181.621 41.0821 181.717C40.9155 181.813 40.392 182.085 38.7607 182.688L30.7201 185.65C29.0084 186.281 28.434 186.427 28.2379 186.456C28.0065 186.49 27.9301 186.433 27.9026 186.413C27.8752 186.393 27.7066 186.244 27.4164 185.471L26.9399 184.177L24.6519 185.023L28.0085 194.165L30.2985 193.321L29.8241 192.027C29.5417 191.259 29.5849 190.999 29.5829 190.999C29.6389 190.878 29.7372 190.781 29.8593 190.728C30.0456 190.621 30.6024 190.354 32.2259 189.754L35.3178 188.612L37.8451 195.471L34.7472 196.613C33.0238 197.249 32.4474 197.4 32.2592 197.427C32.0337 197.463 31.9612 197.406 31.9357 197.388C31.9102 197.37 31.7396 197.221 31.4534 196.458L30.924 195.02L28.63 195.864L32.018 205.095L34.3159 204.247L33.861 203.003C33.5689 202.216 33.6199 201.962 33.6199 201.96C33.673 201.846 33.7666 201.755 33.8826 201.707Z" fill="#1E1A1A"></path> <path d="M61.2649 220.092L63.2452 218.666L57.5064 210.645L55.5241 212.072L56.2809 213.128C56.8593 213.939 56.928 214.214 56.9319 214.214C56.9044 214.29 56.8586 214.357 56.7986 214.411C56.6633 214.556 56.2221 214.949 54.8085 215.966L47.8403 220.979C46.3502 222.05 45.8326 222.355 45.6542 222.428C45.4758 222.501 45.3699 222.489 45.3386 222.477C45.3386 222.477 45.0974 222.369 44.617 221.691L43.7798 220.511L41.7957 221.962L47.5325 229.983L49.5147 228.56L48.6775 227.38C48.1972 226.709 48.1658 226.444 48.1658 226.444C48.1864 226.313 48.2567 226.196 48.3619 226.117C48.5168 225.966 48.9854 225.561 50.3951 224.544L57.3652 219.527C58.8808 218.434 59.3651 218.184 59.5043 218.125C59.564 218.1 59.6265 218.081 59.6905 218.07C59.716 218.088 59.9532 218.253 60.514 219.038L61.2649 220.092Z" fill="#1E1A1A"></path> <path d="M80.5313 239.213L81.245 239.803C81.6346 240.104 81.9695 240.471 82.2351 240.886C82.3475 241.039 82.4105 241.222 82.4155 241.411C82.4155 241.443 82.339 241.722 81.7626 242.434L76.8943 248.432L77.4198 233.524L72.3476 229.376L70.8085 231.274L71.5241 231.864C71.8944 232.144 72.2359 232.46 72.5436 232.808C72.5348 232.92 72.5035 233.029 72.4515 233.128C72.3633 233.325 72.0594 233.854 71.0222 235.134L65.1677 242.347C64.2932 243.425 64.0344 243.63 64.0148 243.645C63.8679 243.673 63.7166 243.669 63.5717 243.632C63.2168 243.569 62.7325 243.327 62.1718 242.931L61.4679 242.436L59.968 244.284L66.4637 249.594L68.0008 247.694L67.2852 247.104C66.5009 246.473 66.2715 246.052 66.197 245.858C66.0441 245.464 66.0892 245.319 66.0911 245.317C66.1205 245.238 66.2872 244.908 67.0891 243.917L73.0122 236.619L72.3397 254.908L73.8416 256.135L83.5625 244.159C84.1252 243.466 84.3879 243.283 84.4566 243.244C84.6148 243.194 84.7845 243.194 84.9428 243.244C85.4073 243.371 85.8437 243.586 86.229 243.875L86.9289 244.359L88.4249 242.519L82.0704 237.331L80.5313 239.213Z" fill="#1E1A1A"></path> <path d="M110.304 253.005C107.576 251.943 104.934 251.888 102.451 252.84C99.9319 253.806 98.1124 255.697 97.0419 258.464C95.9479 261.288 95.9812 263.959 97.1439 266.401C98.3065 268.844 100.299 270.609 103.104 271.711C104.492 272.273 105.972 272.572 107.469 272.592C108.73 272.594 109.979 272.346 111.143 271.86C113.611 270.832 115.407 268.91 116.478 266.144C117.584 263.284 117.517 260.612 116.282 258.201C115.062 255.829 113.051 254.083 110.308 253.015M111.986 264.421C111.057 266.818 109.886 268.434 108.504 269.227C107.171 269.99 105.759 270.063 104.179 269.449C102.345 268.735 101.238 267.679 100.785 266.226C100.314 264.712 100.55 262.72 101.487 260.303C102.406 257.925 103.567 256.315 104.935 255.512C105.618 255.102 106.4 254.886 107.196 254.889C107.959 254.903 108.712 255.059 109.418 255.351C111.149 256.026 112.206 257.076 112.649 258.565C113.111 260.118 112.89 262.089 111.986 264.421Z" fill="#1E1A1A"></path> <path d="M180.307 269.521L180.254 270.223C180.154 271.541 179.958 272.52 179.666 273.134C179.411 273.678 179.123 274.052 178.809 274.243C178.548 274.402 177.992 274.636 176.817 274.874L175.515 275.135C174.327 275.371 174.019 275.293 174.008 275.289C173.896 275.252 173.88 275.216 173.864 275.177C173.827 275.092 173.684 274.691 173.359 273.051L171.576 264.046C171.214 262.204 171.184 261.663 171.184 261.515C171.186 261.449 171.196 261.383 171.214 261.319C171.237 261.303 171.476 261.157 172.429 260.967L174.092 260.636L173.619 258.235L163.569 260.241L164.047 262.64L165.332 262.383C166.285 262.186 166.563 262.237 166.575 262.239C166.635 262.296 166.679 262.368 166.704 262.447C166.779 262.628 166.957 263.187 167.292 264.9L168.965 273.338C169.322 275.135 169.373 275.729 169.373 275.924C169.373 276.152 169.304 276.219 169.277 276.247C169.249 276.274 169.08 276.42 168.277 276.583L166.861 276.862L167.341 279.263L183.703 275.999L182.511 269.084L180.307 269.521Z" fill="#1E1A1A"></path> <path d="M216.944 259.1C216.395 259.318 216.12 259.296 216.028 259.296C215.777 259.244 215.544 259.128 215.352 258.958L201.753 247.625L200.217 248.425L201.341 262.191C201.453 263.658 201.478 263.808 201.482 263.837C201.678 265.607 201.592 266.285 201.529 266.537C201.445 266.873 201.172 267.214 200.719 267.544L200.084 268.014L201.145 270.069L207.399 266.816L206.276 264.653L205.456 265.08C205.209 265.23 204.92 265.294 204.633 265.261C204.558 265.249 204.421 265.226 204.27 264.933C204.211 264.818 204.003 264.27 203.815 262.006L203.762 261.43L208.558 258.933L210.773 260.801C211.381 261.308 211.666 261.576 211.787 261.7C211.462 261.936 211.117 262.143 210.756 262.319L209.938 262.746L211.06 264.909L218.802 260.883L217.722 258.789L216.944 259.1ZM203.535 258.795L203.143 254.339L206.56 257.218L203.535 258.795Z" fill="#1E1A1A"></path> <path d="M237.59 234.269C236.674 233.981 235.699 233.938 234.761 234.145C233.541 234.447 232.337 234.816 231.158 235.252C229.634 235.785 228.493 236.054 227.764 236.054C227.519 236.062 227.275 236.021 227.047 235.932C226.819 235.844 226.611 235.71 226.435 235.539C226.26 235.368 226.121 235.163 226.026 234.936C225.932 234.71 225.884 234.467 225.885 234.221C225.866 233.759 226.134 233.262 226.683 232.743C227.289 232.159 228.099 231.837 228.938 231.848C229.981 231.882 230.993 232.213 231.856 232.802L232.463 233.195L234.075 231.671L229.666 226.983L227.968 228.587L228.487 229.252C228.509 229.278 228.528 229.306 228.546 229.335C227.99 229.369 227.443 229.494 226.926 229.704C226.173 230.032 225.483 230.49 224.887 231.057C223.748 232.135 223.135 233.417 223.066 234.853C223.025 235.559 223.132 236.267 223.381 236.93C223.629 237.592 224.014 238.195 224.509 238.699C225.17 239.404 226 239.927 226.921 240.217C227.852 240.515 228.844 240.572 229.803 240.381C231.004 240.11 232.183 239.752 233.332 239.309C234.851 238.746 235.971 238.483 236.641 238.503C236.93 238.508 237.214 238.573 237.475 238.695C237.737 238.817 237.97 238.993 238.159 239.21C238.376 239.448 238.544 239.728 238.652 240.032C238.76 240.336 238.805 240.658 238.786 240.98C238.786 241.702 238.43 242.379 237.718 243.051C236.081 244.601 233.993 244.428 231.334 242.538L230.716 242.097L229.024 243.698L234.15 249.147L235.849 247.543L235.436 246.898C235.383 246.815 235.334 246.734 235.289 246.656C236.907 246.523 238.428 245.827 239.588 244.689C240.973 243.38 241.724 241.899 241.82 240.294C241.916 238.689 241.357 237.189 240.153 235.909C239.456 235.142 238.57 234.573 237.585 234.259" fill="#1E1A1A"></path> <path d="M261.28 212.232C260.854 212.957 260.629 213.075 260.627 213.075C260.502 213.11 260.368 213.094 260.254 213.032C260.058 212.949 259.488 212.68 258.005 211.803L248.169 205.982L249.128 204.35C249.7 203.367 250.01 203.02 250.141 202.895C250.377 202.737 250.656 202.657 250.939 202.664C251.214 202.651 251.865 202.696 253.121 203.176L253.847 203.453L255.006 201.487L249.728 198.515L240.181 214.741L245.33 217.938L246.506 215.931L245.904 215.427C245.14 214.79 244.634 214.236 244.397 213.777C244.14 213.282 244.169 213.06 244.185 213.003C244.23 212.833 244.408 212.371 245.102 211.191L245.949 209.75L255.788 215.571C257.356 216.503 257.837 216.859 257.982 216.989C258.127 217.118 258.156 217.24 258.156 217.274C258.156 217.274 258.156 217.537 257.739 218.257L256.813 219.83L258.911 221.075L264.281 211.933L262.182 210.69L261.28 212.232Z" fill="#1E1A1A"></path> <path d="M273.433 181.868C273.202 182.674 273.012 182.851 273.012 182.851C273.012 182.851 272.902 182.934 272.643 182.898C272.431 182.873 271.826 182.755 270.155 182.273L261.92 179.895C260.124 179.378 259.628 179.154 259.499 179.081C259.441 179.05 259.387 179.011 259.34 178.965C259.34 178.938 259.317 178.656 259.585 177.72L259.944 176.47L257.591 175.795L254.874 185.284L257.227 185.958L257.583 184.707C257.86 183.746 258.034 183.528 258.032 183.528C258.107 183.501 258.187 183.496 258.264 183.512C258.46 183.53 259.038 183.632 260.715 184.114L268.949 186.491C270.714 186.998 271.263 187.223 271.435 187.311C271.608 187.4 271.663 187.508 271.673 187.533C271.673 187.533 271.737 187.787 271.51 188.582L271.118 189.968L273.471 190.646L276.19 181.156L273.837 180.477L273.433 181.868Z" fill="#1E1A1A"></path> <path d="M184.462 142.121C184.462 149.736 179.952 153.484 174.298 153.484C171.872 153.484 169.329 152.782 166.788 151.494L116.4 124.7L109.957 121.26C108.686 120.556 107.996 120.322 107.3 120.322C107.033 120.313 106.77 120.398 106.557 120.56C106.216 120.834 106.03 121.347 106.03 122.08V178.569C106.03 179.749 106.724 180.911 108.579 180.911C109.186 180.911 112.451 180.761 116.411 180.569L118.396 180.472C124.57 180.168 131.587 179.806 132.951 179.741C133.989 179.741 134.453 179.151 134.453 178.561C134.453 178.02 134.061 177.578 133.446 177.426C133.397 177.414 133.35 177.399 133.297 177.391C132.904 177.336 131.15 177.171 129.271 176.97L128.393 176.874L125.536 176.561C123.029 176.287 120.711 175.093 119.027 173.21C117.343 171.327 116.412 168.886 116.411 166.357V151.291C116.394 148.656 116.886 146.21 118.807 143.659C119.39 142.895 120.04 142.184 120.748 141.535C123.399 139.085 125.905 138.102 128.32 138.08C133.222 138.035 137.759 141.991 142.331 145.873C143.831 147.146 149.076 150.772 150.174 151.594C150.174 151.594 174.896 171.963 189.132 163.995C189.635 163.767 190.115 163.493 190.567 163.175C191.004 162.838 191.418 162.472 191.808 162.081C193.953 159.901 195.171 156.971 195.208 153.909C195.208 153.84 195.208 153.773 195.208 153.712C195.208 147.154 190.471 142.109 184.466 142.109" fill="#1E1A1A"></path> </g> </g> <defs> <clipPath id="clip0_3157_244"> <rect width="300" height="300" fill="white"></rect> </clipPath> <clipPath id="clip1_3157_244"> <rect width="260" height="260" fill="white" transform="translate(20 20)"></rect> </clipPath> </defs> </svg> 