<?xml version="1.0" encoding="UTF-8"?> <svg xmlns="http://www.w3.org/2000/svg" width="148" height="21" viewBox="0 0 148 21" fill="none"> <path d="M1.22656 16V4.64062H3.53906V14.0703H9.28906V16H1.22656ZM10.6253 16V4.54688H19.1175V6.48438H12.9378V9.02344H18.6878V10.9531H12.9378V14.0703H19.3363V16H10.6253ZM23.5553 16V6.48438H20.1569V4.54688H29.2584V6.48438H25.8678V16H23.5553ZM30.3681 4.57812H32.5634V6.14844C32.5634 6.78385 32.5088 7.28646 32.3994 7.65625C32.29 8.02083 32.0817 8.34896 31.7744 8.64062C31.4723 8.93229 31.0869 9.16146 30.6181 9.32812L30.1884 8.42188C30.6311 8.27604 30.9463 8.07552 31.1338 7.82031C31.3213 7.5651 31.4202 7.21615 31.4306 6.77344H30.3681V4.57812ZM33.9856 12.2734L36.2356 12.0547C36.371 12.8099 36.6445 13.3646 37.0559 13.7188C37.4726 14.0729 38.0325 14.25 38.7356 14.25C39.4804 14.25 40.0403 14.0938 40.4153 13.7812C40.7955 13.4635 40.9856 13.0938 40.9856 12.6719C40.9856 12.401 40.9049 12.1719 40.7434 11.9844C40.5872 11.7917 40.3111 11.625 39.9153 11.4844C39.6445 11.3906 39.0273 11.224 38.0638 10.9844C36.8242 10.6771 35.9544 10.2995 35.4544 9.85156C34.7513 9.22135 34.3997 8.45312 34.3997 7.54688C34.3997 6.96354 34.5638 6.41927 34.8919 5.91406C35.2252 5.40365 35.7018 5.01562 36.3216 4.75C36.9466 4.48438 37.6992 4.35156 38.5794 4.35156C40.0169 4.35156 41.0976 4.66667 41.8216 5.29688C42.5507 5.92708 42.9335 6.76823 42.97 7.82031L40.6575 7.92188C40.5585 7.33333 40.345 6.91146 40.0169 6.65625C39.694 6.39583 39.207 6.26562 38.5559 6.26562C37.8841 6.26562 37.358 6.40365 36.9778 6.67969C36.733 6.85677 36.6106 7.09375 36.6106 7.39062C36.6106 7.66146 36.7252 7.89323 36.9544 8.08594C37.246 8.33073 37.9544 8.58594 39.0794 8.85156C40.2044 9.11719 41.0351 9.39323 41.5716 9.67969C42.1132 9.96094 42.5351 10.349 42.8372 10.8438C43.1445 11.3333 43.2981 11.9401 43.2981 12.6641C43.2981 13.3203 43.1158 13.9349 42.7513 14.5078C42.3867 15.0807 41.871 15.5078 41.2044 15.7891C40.5377 16.0651 39.707 16.2031 38.7122 16.2031C37.2643 16.2031 36.1523 15.8698 35.3763 15.2031C34.6002 14.5312 34.1367 13.5547 33.9856 12.2734ZM56.3847 11.7891L58.6269 12.5C58.2831 13.75 57.7102 14.6797 56.9081 15.2891C56.1113 15.8932 55.0982 16.1953 53.8691 16.1953C52.3482 16.1953 51.0982 15.6771 50.1191 14.6406C49.1399 13.599 48.6503 12.1771 48.6503 10.375C48.6503 8.46875 49.1425 6.98958 50.1269 5.9375C51.1113 4.88021 52.4055 4.35156 54.0097 4.35156C55.4107 4.35156 56.5488 4.76562 57.4238 5.59375C57.9446 6.08333 58.3352 6.78646 58.5956 7.70312L56.3066 8.25C56.1711 7.65625 55.8873 7.1875 55.455 6.84375C55.0279 6.5 54.5071 6.32812 53.8925 6.32812C53.0435 6.32812 52.3534 6.63281 51.8222 7.24219C51.2961 7.85156 51.0331 8.83854 51.0331 10.2031C51.0331 11.651 51.2935 12.6823 51.8144 13.2969C52.3352 13.9115 53.0123 14.2188 53.8456 14.2188C54.4602 14.2188 54.9889 14.0234 55.4316 13.6328C55.8743 13.2422 56.192 12.6276 56.3847 11.7891ZM59.8303 10.3438C59.8303 9.17708 60.0048 8.19792 60.3537 7.40625C60.6142 6.82292 60.9683 6.29948 61.4162 5.83594C61.8694 5.3724 62.3642 5.02865 62.9006 4.80469C63.6142 4.5026 64.4371 4.35156 65.3694 4.35156C67.0569 4.35156 68.4058 4.875 69.4162 5.92188C70.4319 6.96875 70.9397 8.42448 70.9397 10.2891C70.9397 12.138 70.4371 13.5859 69.4319 14.6328C68.4267 15.6745 67.0829 16.1953 65.4006 16.1953C63.6975 16.1953 62.3433 15.6771 61.3381 14.6406C60.3329 13.599 59.8303 12.1667 59.8303 10.3438ZM62.2131 10.2656C62.2131 11.5625 62.5126 12.5469 63.1116 13.2188C63.7105 13.8854 64.4709 14.2188 65.3928 14.2188C66.3147 14.2188 67.0699 13.888 67.6584 13.2266C68.2522 12.5599 68.5491 11.5625 68.5491 10.2344C68.5491 8.92188 68.26 7.94271 67.6819 7.29688C67.109 6.65104 66.3459 6.32812 65.3928 6.32812C64.4397 6.32812 63.6715 6.65625 63.0881 7.3125C62.5048 7.96354 62.2131 8.94792 62.2131 10.2656ZM72.4556 16V4.54688H74.7056L79.3931 12.1953V4.54688H81.5416V16H79.2213L74.6041 8.53125V16H72.4556ZM83.6981 16V4.54688H85.9481L90.6356 12.1953V4.54688H92.7841V16H90.4638L85.8466 8.53125V16H83.6981ZM94.9172 16V4.54688H103.409V6.48438H97.2297V9.02344H102.98V10.9531H97.2297V14.0703H103.628V16H94.9172ZM112.597 11.7891L114.839 12.5C114.496 13.75 113.923 14.6797 113.121 15.2891C112.324 15.8932 111.311 16.1953 110.082 16.1953C108.561 16.1953 107.311 15.6771 106.332 14.6406C105.352 13.599 104.863 12.1771 104.863 10.375C104.863 8.46875 105.355 6.98958 106.339 5.9375C107.324 4.88021 108.618 4.35156 110.222 4.35156C111.623 4.35156 112.761 4.76562 113.636 5.59375C114.157 6.08333 114.548 6.78646 114.808 7.70312L112.519 8.25C112.384 7.65625 112.1 7.1875 111.668 6.84375C111.24 6.5 110.72 6.32812 110.105 6.32812C109.256 6.32812 108.566 6.63281 108.035 7.24219C107.509 7.85156 107.246 8.83854 107.246 10.2031C107.246 11.651 107.506 12.6823 108.027 13.2969C108.548 13.9115 109.225 14.2188 110.058 14.2188C110.673 14.2188 111.201 14.0234 111.644 13.6328C112.087 13.2422 112.404 12.6276 112.597 11.7891ZM119.09 16V6.48438H115.691V4.54688H124.793V6.48438H121.402V16H119.09Z" fill="#DBDBDB"></path> <path d="M0 18.5312H125.121V20.2109H0V18.5312Z" fill="#DBDBDB"></path> <path fill-rule="evenodd" clip-rule="evenodd" d="M142.586 12H134V9.99997H142.586L139.293 6.70697L140.707 5.29297L146.414 11L140.707 16.707L139.293 15.293L142.586 12Z" fill="#DBDBDB"></path> </svg> 