<svg viewBox="0 0 146.4140625 15.859375" fill="none" xmlns="http://www.w3.org/2000/svg"><path d="M1.226562571059087 11.648437967950086V0.28906283503093005H3.5390727469069967V9.7187455978029H9.289072793568687V11.648437967950086H1.226562571059087Z" fill="white"></path><path d="M10.625313489227818 11.648437967950086V0.19531261157476537H19.117504011572098V2.1328131487308024H12.937806175341297V4.671882845829778H18.687806222002987V6.601550230642065H12.937806175341297V9.7187455978029H19.336250618600683V11.648437967950086H10.625313489227818Z" fill="white"></path><path d="M23.55532424008106 11.648437967950086V2.1328131487308024H20.156868957977817V0.19531261157476537H29.258326871800342V2.1328131487308024H25.86781692619454V11.648437967950086H23.55532424008106Z" fill="white"></path><path d="M30.36817544795222 0.22656251949125428H32.56338697205632V1.7968753268984643C32.56338697205632 2.432292369880546 32.50866908863055 2.9349023637478666 32.39948317512799 3.3046853202325086C32.29004740827645 3.6692713270584476 32.081669715230376 3.9974037302687715 31.77435009598976 4.289057544528584C31.472277397077644 4.580736344123293 31.08675367960751 4.809901835804181 30.61802879692833 4.976554019571246L30.188530890038397 4.0703109375C30.631271024424063 3.924471537702645 30.946336097482938 3.7239642251493175 31.13372610921502 3.468739029170222C31.321365974296075 3.213538818526024 31.420307900490613 2.86459363134599 31.430551887798636 2.421875983761732H30.36817544795222V0.22656251949125428Z" fill="white"></path><path d="M33.985552234428326 7.921875267971417L36.235731495307164 7.703128660942833C36.37115201045222 8.458335393558022 36.64449157423208 9.013009828284984 37.05600003999574 9.367176950458617C37.47250557273891 9.721344072632252 38.03242692779437 9.898440126386518 38.735514251813136 9.898440126386518C39.48032708511093 9.898440126386518 40.04024844016638 9.74218184193686 40.415278316979524 9.42969025837244C40.79555511412116 9.11197673981442 40.98569351269198 8.742193783329778 40.98569351269198 8.320316403583618C40.98569351269198 8.049475373293516 40.9049908809727 7.820309881612629 40.743335764185154 7.632819928540956C40.58717742107508 7.440108040475683 40.31108947045649 7.273430871373721 39.91532176567833 7.132813406569966C39.64448073538823 7.0390684300341295 39.02734296341723 6.872391260932168 38.06365859641638 6.632806884598977C36.82413613214591 6.32551225069326 35.954396624360065 5.947908884385665 35.454440073058876 5.499996785676195C34.7513527490401 4.869791683553754 34.39980908703072 4.101567591456911 34.39980908703072 3.1953245093856655C34.39980908703072 2.611966910196246 34.56371288395905 2.0677088615880974 34.89177033116468 1.562500392891425C35.22532455204779 1.0520824818686008 35.70179488854522 0.6640627294421929 36.32168104735496 0.3984386370787116C36.9465642731442 0.13281254588843858 37.699122560260236 0 38.57935590870307 0C40.016762225362626 0 41.09762781303328 0.3151050495947099 41.821452965017066 0.9453126502506399C42.550774890678326 1.5755202509065702 42.93355022130973 2.41666654143558 42.97002881026024 3.468739029170222L40.657386212137375 3.5703044155290105C40.558444285942834 2.981774852015785 40.34506952591723 2.5598974722696246 40.016762225362626 2.3046872674914676C39.6939516984855 2.0442701189206485 39.20698752133106 1.914061544635239 38.55586969389932 1.914061544635239C37.88401403850256 1.914061544635239 37.35807273890785 2.0520830331431315 36.97779594176621 2.3281260101589165C36.73293965976963 2.5052045741787543 36.61051151877133 2.7421904756825937 36.61051151877133 3.0390662249360068C36.61051151877133 3.3099072552261095 36.72519420595137 3.5416712217363484 36.95430972696246 3.7343831098016214C37.246138438566554 3.9791644357935154 37.954472682913824 4.234364646437713 39.07931246000427 4.500008727069113C40.204402090443686 4.765627822365614 41.03516447578925 5.04166580231442 41.571599616040956 5.328122666915529C42.11328167662116 5.609382581857935 42.53503412969284 5.997404832817833 42.83710682860495 6.492189419795222C43.14442644784557 6.981777057113908 43.298086257465876 7.588545915102389 43.298086257465876 8.312495993760667C43.298086257465876 8.968760800181313 43.11594316606229 9.58332508265785 42.751157276557166 10.156238811860069C42.38662124040102 10.729177526397184 41.87092392811434 11.156251855802049 41.20431519304607 11.437511770744454C40.53770645797782 11.71354975069326 39.706944072632254 11.851568740667663 38.712277890358365 11.851568740667663C37.26437773304181 11.851568740667663 36.15228047674915 11.518239387798635 35.37623597482935 10.851555696725683C34.60019147290956 10.179675055994029 34.13671351055888 9.203123241520904 33.985552234428326 7.921875267971417Z" fill="white"></path><path d="M56.38465511678754 7.437509565646331L58.62683907049915 8.148442284822954C58.28304086230803 9.39843360441553 57.71012713310581 10.328112930620735 56.90809788289249 10.937505248773464C56.11131555300768 11.541675631932595 55.098160222909556 11.84374833084471 53.86913159929608 11.84374833084471C52.3482742640785 11.84374833084471 51.09825795915103 11.325527499733361 50.11908268451365 10.289060852175767C49.13990740987629 9.247397254959472 48.65019484588311 7.825531816606229 48.65019484588311 6.023439551781144C48.65019484588311 4.1171834257679185 49.14240594336604 2.638026614494454 50.126828138331916 1.585936637025384C51.11125033329778 0.5286447128306314 52.40549068099403 0 54.00979903476963 0C55.41072676247867 0 56.54880876706485 0.4140619669901877 57.42379519517919 1.2421883995040528C57.94448957444539 1.7317710397557593 58.33526021224403 2.434895841776877 58.59560740187714 3.3515578085004267L56.30645101855802 3.898436818739335C56.17103050341297 3.3046853202325086 55.88719709897611 2.8359354522184304 55.45495080524744 2.492187214697099C55.02795143184728 2.148436478642278 54.507007199232085 1.9765623598816127 53.89261781409983 1.9765623598816127C53.04361613427901 1.9765623598816127 52.353521184407 2.2812510233575085 51.822083111134816 2.8906283503093007C51.2961418115401 3.4999956831271333 51.03304623506826 4.486991367587458 51.03304623506826 5.851565433020478C51.03304623506826 7.299490575671928 51.29364327805034 8.330735288235923 51.81433765731655 8.945324556047355C52.33528188993174 9.559888838523891 53.012384465657 9.867183472429609 53.84564538449232 9.867183472429609C54.46028462297355 9.867183472429609 54.988974309407 9.671873109534983 55.43146459044369 9.281252383745734C55.87420472482935 8.890631657956485 56.19201818472697 8.276042390145053 56.38465511678754 7.437509565646331Z" fill="white"></path><path d="M59.830382652517066 5.992182897824232C59.830382652517066 4.825517670115188 60.00478029010239 3.8463423954778158 60.353825418622016 3.0546820592470136C60.61417260825512 2.471354442459471 60.968214803754265 1.9479166734215019 61.41620185846843 1.4843762477335751C61.86943583351109 1.0208333235121587 62.36414546448379 0.6770825874573378 62.900580604735495 0.4531240395691127C63.61416176941126 0.1510415963763865 64.43717870093856 0 65.36938154596842 0C67.05689106495308 0 68.40584929607509 0.5234377690379693 69.41625623933447 1.570313307113908C70.43191010292234 2.6171888451898466 70.93961210804181 4.072909412329352 70.93961210804181 5.937489999733362C70.93961210804181 7.786454752826366 70.43715702325085 9.234379895477817 69.43174714697099 10.281240442352816C68.42658712404011 11.322929024904012 67.08287581324659 11.84374833084471 65.40061321459044 11.84374833084471C63.697612787969284 11.84374833084471 62.343407636518776 11.325527499733361 61.33824761358789 10.289060852175767C60.332837737308026 9.247397254959472 59.830382652517066 7.815112931953926 59.830382652517066 5.992182897824232ZM62.21323404170222 5.9140537555994035C62.21323404170222 7.210942548794796 62.5125583537756 8.195314773090871 63.11145683127133 8.867195413822527C63.71060516211604 9.533854119560582 64.47090890305034 9.867183472429609 65.39286776077219 9.867183472429609C66.31457676514505 9.867183472429609 67.06988343909984 9.536452594389932 67.65853792928755 8.87499083831058C68.25218948645478 8.208332132572526 68.5490152650384 7.210942548794796 68.5490152650384 5.88282208697739C68.5490152650384 4.57031745947099 68.25993494027304 3.591142184833618 67.68177429074233 2.9453212484001705C67.10886056154011 2.2994803236988055 66.34580843376706 1.9765623598816127 65.39286776077219 1.9765623598816127C64.43967723442833 1.9765623598816127 63.6713781863268 2.3046872674914676 63.088220469816555 2.9609370827111774C62.50481289995734 3.6119799541382256 62.21323404170222 4.596352178434301 62.21323404170222 5.9140537555994035Z" fill="white"></path><path d="M72.45572222962885 11.648437967950086V0.19531261157476537H74.70565163715871L79.3931503172995 7.843746125746588V0.19531261157476537H81.54163926514505V11.648437967950086H79.22125121320393L74.60396132412544 4.179696733681741V11.648437967950086H72.45572222962885Z" fill="white"></path><path d="M83.69812352015785 11.648437967950086V0.19531261157476537H85.94805292768773L90.6355516078285 7.843746125746588V0.19531261157476537H92.78404055567407V11.648437967950086H90.46365250373294L85.84661246800343 4.179696733681741V11.648437967950086H83.69812352015785Z" fill="white"></path><path d="M94.91728844923209 11.648437967950086V0.19531261157476537H103.40930407423208V2.1328131487308024H97.22968119400598V4.671882845829778H102.97980616734215V6.601550230642065H97.22968119400598V9.7187455978029H103.62817560793515V11.648437967950086H94.91728844923209Z" fill="white"></path><path d="M112.59716127613055 7.437509565646331L114.83934522984215 8.148442284822954C114.49554702165102 9.39843360441553 113.92263329244882 10.328112930620735 113.1206040422355 10.937505248773464C112.32382171235069 11.541675631932595 111.31066638225256 11.84374833084471 110.08163775863908 11.84374833084471C108.5607804234215 11.84374833084471 107.31076411849403 11.325527499733361 106.33158884385666 10.289060852175767C105.35241356921928 9.247397254959472 104.86270100522611 7.825531816606229 104.86270100522611 6.023439551781144C104.86270100522611 4.1171834257679185 105.35491210270904 2.638026614494454 106.33933429767492 1.585936637025384C107.3237564926408 0.5286447128306314 108.61799684033703 0 110.22230519411264 0C111.62323292182168 0 112.76131492640785 0.4140619669901877 113.63630135452219 1.2421883995040528C114.1569957337884 1.7317710397557593 114.54776637158703 2.434895841776877 114.80811356122014 3.3515578085004267L112.51895717790102 3.898436818739335C112.38353666275597 3.3046853202325086 112.09970325831911 2.8359354522184304 111.66745696459046 2.492187214697099C111.24045759119028 2.148436478642278 110.71951335857509 1.9765623598816127 110.10512397344283 1.9765623598816127C109.25612229362201 1.9765623598816127 108.56602734375001 2.2812510233575085 108.03458927047782 2.8906283503093007C107.5086479708831 3.4999956831271333 107.24555239441126 4.486991367587458 107.24555239441126 5.851565433020478C107.24555239441126 7.299490575671928 107.50614943739335 8.330735288235923 108.02684381665956 8.945324556047355C108.54778804927476 9.559888838523891 109.224890625 9.867183472429609 110.05815154383532 9.867183472429609C110.67279078231657 9.867183472429609 111.20123061540102 9.671873109534983 111.6439707497867 9.281252383745734C112.08671088417236 8.890631657956485 112.40452434406997 8.276042390145053 112.59716127613055 7.437509565646331Z" fill="white"></path><path d="M119.08960054927475 11.648437967950086V2.1328131487308024H115.69134514985068V0.19531261157476537H124.79275309300341V2.1328131487308024H121.40224314739761V11.648437967950086H119.08960054927475Z" fill="white"></path><path d="M0 14.17967726109215H125.12106039355803V15.85936637025384H0V14.17967726109215Z" fill="white"></path><path fill-rule="evenodd" clip-rule="evenodd" d="M142.58605934033702 7.648435762851962H134.00009885612204V5.648434660302901H142.58605934033702L139.29299220083192 2.3554374797354947L140.70691230268773 0.9414374248080205L146.4140625 6.648447704244881L140.70691230268773 12.355447989547782L139.29299220083192 10.94142794635239L142.58605934033702 7.648435762851962Z" fill="white"></path></svg>