<svg viewBox="0 0 34.80908203125 34.808837890625" fill="none" xmlns="http://www.w3.org/2000/svg"><g filter="url(#filter0_b_38_1440)"><path d="M21.48898897391183 0.30559639024135044C21.701523283342635 -0.22647683860212053 22.49897448904855 -0.012800269144461494 22.416974237234932 0.5542476086425782L21.72867436732701 5.311144872698103C20.839899048549107 11.4535803515625 24.275853808593748 17.40486424281529 30.0397405203683 19.70634129220145L34.50350801827567 21.488715473981586C35.03558970075335 21.701249783412386 34.8220111188616 22.4987009891183 34.25487171805245 22.41670073730469L29.49796202218192 21.72840086739676C23.3555016796875 20.839625548618862 17.40424265206473 24.275605172293528 15.10274073904855 30.039491884068077L13.320391420898437 34.50325938197545C13.107857111467634 35.03534106445312 12.310405905761717 34.82176248256138 12.392406157575335 34.254623081752236L13.08070602748326 29.4977133858817C13.969456482631138 23.35525304338728 10.533501722586495 17.403969152134486 4.7696150108119415 15.102467239118303L0.30585994471958705 13.320117920968192C-0.22621378139648438 13.107583611537388 -0.012537311393345423 12.310132405831473 0.5545111631208147 12.39213265764509L5.311418372628348 13.080432527553013C11.453853851492745 13.969207846330916 17.405112879115514 10.53322822265625 19.706614792131695 4.769341510881696L21.48898897391183 0.30559639024135044Z" fill="#707070" fill-opacity="0.4"></path></g><defs><filter id="filter0_b_38_1440" x="-25.999897914341517" y="-25.999897914341517" width="86.80912649623326" height="86.80887785993303" filterUnits="userSpaceOnUse" color-interpolation-filters="sRGB"><feFlood flood-opacity="0" result="BackgroundImageFix"></feFlood><feGaussianBlur in="BackgroundImageFix" stdDeviation="13"></feGaussianBlur><feComposite in2="SourceAlpha" operator="in" result="effect1_backgroundBlur_38_1440"></feComposite><feBlend mode="normal" in="SourceGraphic" in2="effect1_backgroundBlur_38_1440" result="shape"></feBlend></filter></defs></svg>