<?xml version="1.0" encoding="UTF-8"?>
<svg xmlns="http://www.w3.org/2000/svg" width="126" height="17" viewBox="0 0 126 17" fill="none"> <path d="M1.22656 12V0.640625H3.53906V10.0703H9.28906V12H1.22656Z" fill="#1A1B1C"/> <path d="M10.6253 12V0.546875H19.1175V2.48438H12.9378V5.02344H18.6878V6.95312H12.9378V10.0703H19.3363V12H10.6253Z" fill="#1A1B1C"/> <path d="M31.3053 12H28.7897L27.7897 9.39844H23.2116L22.2663 12H19.8131L24.2741 0.546875H26.7194L31.3053 12ZM27.0475 7.46875L25.4694 3.21875L23.9225 7.46875H27.0475Z" fill="#1A1B1C"/> <path d="M32.2275 12V0.546875H37.0947C38.3186 0.546875 39.2067 0.651042 39.7588 0.859375C40.316 1.0625 40.7614 1.42708 41.0947 1.95312C41.428 2.47917 41.5947 3.08073 41.5947 3.75781C41.5947 4.61719 41.3421 5.32812 40.8369 5.89062C40.3317 6.44792 39.5765 6.79948 38.5713 6.94531C39.0713 7.23698 39.4827 7.55729 39.8056 7.90625C40.1338 8.25521 40.5739 8.875 41.1259 9.76562L42.5244 12H39.7588L38.0869 9.50781C37.4931 8.61719 37.0869 8.05729 36.8681 7.82812C36.6494 7.59375 36.4176 7.4349 36.1728 7.35156C35.928 7.26302 35.54 7.21875 35.0088 7.21875H34.54V12H32.2275ZM34.54 5.39062H36.2509C37.3603 5.39062 38.053 5.34375 38.3291 5.25C38.6051 5.15625 38.8213 4.99479 38.9775 4.76562C39.1338 4.53646 39.2119 4.25 39.2119 3.90625C39.2119 3.52083 39.1077 3.21094 38.8994 2.97656C38.6963 2.73698 38.4072 2.58594 38.0322 2.52344C37.8447 2.4974 37.2822 2.48438 36.3447 2.48438H34.54V5.39062Z" fill="#1A1B1C"/> <path d="M43.4856 12V0.546875H45.7356L50.4231 8.19531V0.546875H52.5716V12H50.2513L45.6341 4.53125V12H43.4856Z" fill="#1A1B1C"/> <path d="M58.8066 12V0.546875H62.2675L64.3456 8.35938L66.4003 0.546875H69.8691V12H67.7206V2.98438L65.4472 12H63.2206L60.955 2.98438V12H58.8066Z" fill="#1A1B1C"/> <path d="M71.3772 6.34375C71.3772 5.17708 71.5517 4.19792 71.9006 3.40625C72.161 2.82292 72.5152 2.29948 72.9631 1.83594C73.4163 1.3724 73.911 1.02865 74.4475 0.804688C75.161 0.502604 75.984 0.351562 76.9163 0.351562C78.6038 0.351562 79.9527 0.875 80.9631 1.92188C81.9788 2.96875 82.4866 4.42448 82.4866 6.28906C82.4866 8.13802 81.984 9.58594 80.9788 10.6328C79.9735 11.6745 78.6298 12.1953 76.9475 12.1953C75.2444 12.1953 73.8902 11.6771 72.885 10.6406C71.8798 9.59896 71.3772 8.16667 71.3772 6.34375ZM73.76 6.26562C73.76 7.5625 74.0595 8.54688 74.6584 9.21875C75.2574 9.88542 76.0178 10.2188 76.9397 10.2188C77.8616 10.2188 78.6168 9.88802 79.2053 9.22656C79.7991 8.5599 80.0959 7.5625 80.0959 6.23438C80.0959 4.92188 79.8069 3.94271 79.2288 3.29688C78.6558 2.65104 77.8928 2.32812 76.9397 2.32812C75.9866 2.32812 75.2183 2.65625 74.635 3.3125C74.0517 3.96354 73.76 4.94792 73.76 6.26562Z" fill="#1A1B1C"/> <path d="M83.9869 12V0.546875H88.8541C90.078 0.546875 90.966 0.651042 91.5181 0.859375C92.0754 1.0625 92.5207 1.42708 92.8541 1.95312C93.1874 2.47917 93.3541 3.08073 93.3541 3.75781C93.3541 4.61719 93.1015 5.32812 92.5963 5.89062C92.091 6.44792 91.3358 6.79948 90.3306 6.94531C90.8306 7.23698 91.2421 7.55729 91.565 7.90625C91.8931 8.25521 92.3332 8.875 92.8853 9.76562L94.2838 12H91.5181L89.8463 9.50781C89.2525 8.61719 88.8463 8.05729 88.6275 7.82812C88.4088 7.59375 88.177 7.4349 87.9322 7.35156C87.6874 7.26302 87.2994 7.21875 86.7681 7.21875H86.2994V12H83.9869ZM86.2994 5.39062H88.0103C89.1197 5.39062 89.8124 5.34375 90.0884 5.25C90.3645 5.15625 90.5806 4.99479 90.7369 4.76562C90.8931 4.53646 90.9713 4.25 90.9713 3.90625C90.9713 3.52083 90.8671 3.21094 90.6588 2.97656C90.4556 2.73698 90.1666 2.58594 89.7916 2.52344C89.6041 2.4974 89.0416 2.48438 88.1041 2.48438H86.2994V5.39062Z" fill="#1A1B1C"/> <path d="M95.2216 12V0.546875H103.714V2.48438H97.5341V5.02344H103.284V6.95312H97.5341V10.0703H103.933V12H95.2216Z" fill="#1A1B1C"/> <path d="M0 14.5312H104.729V16.2109H0V14.5312Z" fill="#1A1B1C"/> <path fill-rule="evenodd" clip-rule="evenodd" d="M121.586 7.5H113V5.5H121.586L118.293 2.207L119.707 0.793L125.414 6.5L119.707 12.207L118.293 10.793L121.586 7.5Z" fill="#1A1B1C"/> </svg>